<svg xmlns="http://www.w3.org/2000/svg" width="170" height="152" viewBox="0 0 170 152">
    <g fill="#837DFF" fill-rule="evenodd">
        <path d="M162.98 32.18H104.3c-5.22 0-9.9-2.697-12.42-7.191l-6.84-11.686A26.904 26.904 0 0 0 61.82 0H22.4C14.48 0 8 6.472 8 14.382v122.607c0 3.955 3.24 7.011 7.02 7.011h147.96c3.78 0 7.02-3.056 7.02-7.011V39.19c0-3.775-3.24-7.011-7.02-7.011z" opacity=".1"/>
        <path d="M154.98 40.18H96.3c-5.22 0-9.9-2.697-12.42-7.191l-6.84-11.686A26.904 26.904 0 0 0 53.82 8H14.4C6.48 8 0 14.472 0 22.382v122.607C0 148.944 3.24 152 7.02 152h147.96c3.78 0 7.02-3.056 7.02-7.011V47.19c0-3.775-3.24-7.011-7.02-7.011z"/>
    </g>
</svg>
