<svg xmlns="http://www.w3.org/2000/svg" xmlns:xlink="http://www.w3.org/1999/xlink" width="98" height="116" viewBox="0 0 98 116">
    <defs>
        <path id="b" d="M57.6 0h24.281C89.304 0 96 6.696 96 14.119V38.4L57.6 0z"/>
        <filter id="a" width="120.8%" height="120.8%" x="-10.4%" y="-15.6%" filterUnits="objectBoundingBox">
            <feOffset dy="-2" in="SourceAlpha" result="shadowOffsetOuter1"/>
            <feGaussianBlur in="shadowOffsetOuter1" result="shadowBlurOuter1" stdDeviation="1"/>
            <feComposite in="shadowBlurOuter1" in2="SourceAlpha" operator="out" result="shadowBlurOuter1"/>
            <feColorMatrix in="shadowBlurOuter1" values="0 0 0 0 0 0 0 0 0 0 0 0 0 0 0 0 0 0 0.0909637238 0"/>
        </filter>
    </defs>
    <g fill="none" fill-rule="evenodd">
        <path fill="#FF5154" d="M57.6 0L96 38.4v63.36c0 7.423-6.017 13.44-13.44 13.44H13.44C6.017 115.2 0 109.183 0 101.76V13.44C0 6.017 6.017 0 13.44 0H57.6z"/>
        <path fill="#FFF" fill-rule="nonzero" d="M44.768 42.24c-2.517 0-4.587 2.07-4.587 4.587 0 3.128 1.739 7.013 3.57 10.664-1.432 4.479-3.055 9.28-5.132 13.33-4.25 1.667-8.041 2.907-10.32 4.744a1.376 1.376 0 0 0-.1.115 4.644 4.644 0 0 0-1.319 3.253c0 2.517 2.07 4.587 4.587 4.587 1.227 0 2.412-.458 3.268-1.333.03-.023.058-.047.086-.072 1.677-2.003 3.655-5.637 5.418-8.958 4.061-1.598 8.319-3.224 12.427-4.2 2.999 2.417 7.337 4.014 10.907 4.014 2.517 0 4.587-2.07 4.587-4.587s-2.07-4.587-4.587-4.587c-2.863 0-7.024 1.022-10.205 2.093-2.579-2.42-4.948-5.444-6.65-8.657 1.216-3.748 2.637-7.499 2.637-10.406 0-2.517-2.07-4.587-4.587-4.587zm0 2.752c1.03 0 1.835.805 1.835 1.835 0 1.376-.738 3.911-1.591 6.636-1.141-2.651-2.079-5.194-2.079-6.636 0-1.03.805-1.835 1.835-1.835zm.788 15.695a36.807 36.807 0 0 0 4.759 6.049c-2.72.743-5.376 1.696-7.998 2.694 1.266-2.857 2.28-5.823 3.24-8.743zm18.017 5.862c1.03 0 1.835.805 1.835 1.835 0 1.03-.805 1.835-1.835 1.835-2.067 0-5.004-.933-7.353-2.236 2.696-.763 5.637-1.434 7.353-1.434zm-27.376 8.213c-1.29 2.303-2.572 4.452-3.469 5.533-.306.293-.714.473-1.261.473a1.814 1.814 0 0 1-1.835-1.835c0-.484.206-.965.487-1.275 1.076-.833 3.417-1.83 6.078-2.896z"/>
        <g transform="rotate(180 76.8 19.2)">
            <use fill="#000" filter="url(#a)" xlink:href="#b"/>
            <use fill="#FFF" fill-opacity=".4" xlink:href="#b"/>
        </g>
    </g>
</svg>
