<?xml version="1.0" encoding="UTF-8"?>
<svg enable-background="new 0 0 512 512" version="1.1" viewBox="0 0 512 512" xml:space="preserve" xmlns="http://www.w3.org/2000/svg">
<path d="M407,512H105C47.103,512,0,464.897,0,407V105C0,47.103,47.103,0,105,0h302  c57.897,0,105,47.103,105,105v302C512,464.897,464.897,512,407,512z" fill="#00C3FF"/>
<path d="M407,0H256v512h151c57.897,0,105-47.103,105-105V105C512,47.103,464.897,0,407,0z" fill="#00AAF0"/>
<g fill="#fff">
	<path d="m157.65 394.52c-4.625 8.011-13.046 12.494-21.693 12.495-4.239 0-8.531-1.077-12.458-3.344-11.938-6.892-16.043-22.212-9.151-34.15l4.917-8.516h57.735l-19.35 33.515z"/>
	<path d="m110.5 341c-13.785 0-25-11.215-25-25s11.215-25 25-25h49.178l67.454-116.83-18.281-31.664c-6.892-11.938-2.788-27.258 9.15-34.151h1e-3c11.938-6.892 27.258-2.786 34.15 9.151l3.848 6.665 3.848-6.664c6.895-11.939 22.215-16.043 34.15-9.151 5.783 3.339 9.92 8.73 11.648 15.18 1.729 6.45 0.841 13.188-2.498 18.971l-85.735 148.5h54.079l28.868 50h-189.86z"/>
</g>
<g fill="#F2F2F2">
	<path d="m401.5 341h-20.311l16.463 28.515c6.893 11.937 2.788 27.257-9.149 34.15-3.853 2.224-8.129 3.361-12.461 3.361-2.172 0-4.356-0.285-6.511-0.863-6.451-1.729-11.842-5.866-15.181-11.65l-86.804-150.35 28.867-50 55.909 96.835h49.178c13.785 0 25 11.215 25 25s-11.215 25-25 25z"/>
	<polygon points="256 291 256 341 300.36 341 271.49 291"/>
	<path d="m305.65 123.53c-1.729-6.45-5.865-11.842-11.648-15.18-11.936-6.892-27.256-2.789-34.15 9.151l-3.848 6.664v100l47.148-81.664c3.339-5.783 4.227-12.52 2.498-18.971z"/>
</g>
</svg>
