<?xml version="1.0" encoding="UTF-8"?>
<svg width="536px" height="130px" viewBox="0 0 536 130" version="1.1" xmlns="http://www.w3.org/2000/svg" xmlns:xlink="http://www.w3.org/1999/xlink">
    <!-- Generator: Sketch 52.4 (67378) - http://www.bohemiancoding.com/sketch -->
    <title>GlobalSearch</title>
    <desc>Created with Sketch.</desc>
    <defs>
        <rect id="path-1" x="0" y="0" width="536" height="130" rx="8"></rect>
    </defs>
    <g id="Page-3" stroke="none" stroke-width="1" fill="none" fill-rule="evenodd">
        <g id="GlobalSearch">
            <g id="Quick-search">
                <mask id="mask-2" fill="white">
                    <use xlink:href="#path-1"></use>
                </mask>
                <use id="Background" fill="#FFFFFF" xlink:href="#path-1"></use>
                <g id="Icon-/-close" mask="url(#mask-2)">
                    <g transform="translate(488.000000, 24.000000)" id="Group-4">
                        <g>
                            <circle id="Oval" fill="#F5F5F7" cx="12" cy="12" r="12"></circle>
                            <g id="Icon-/-cross" transform="translate(7.000000, 7.000000)" fill="#444444">
                                <path d="M6.17386559,4.99928946 L9.75373938,1.42723342 C10.0801924,1.10073403 10.0801924,0.57137393 9.75373938,0.244874541 C9.42728638,-0.0816248471 8.8980015,-0.0816248471 8.5715485,0.244874541 L5,3.82525706 L1.4284515,0.244874541 C1.1019985,-0.0816248388 0.572713623,-0.0816248348 0.246260629,0.24487455 C-0.0801923642,0.571373935 -0.0801923682,1.10073403 0.24626062,1.42723342 L3.82613441,4.99928946 L0.24626062,8.57134551 C0.0886523887,8.72768882 0,8.94050998 0,9.16252495 C0,9.38453992 0.0886523887,9.59736107 0.24626062,9.75370438 C0.40258172,9.91133501 0.615372635,10 0.83735606,10 C1.05933948,10 1.2721304,9.91133501 1.4284515,9.75370438 L5,6.17332187 L8.5715485,9.75370438 C8.7278696,9.91133501 8.94066052,10 9.16264394,10 C9.38462737,10 9.59741828,9.91133501 9.75373938,9.75370438 C9.91134761,9.59736107 10,9.38453992 10,9.16252495 C10,8.94050998 9.91134761,8.72768882 9.75373938,8.57134551 L6.17386559,4.99928946 Z" id="Path"></path>
                            </g>
                        </g>
                    </g>
                </g>
                <g id="Search" mask="url(#mask-2)">
                    <rect id="Rectangle" fill="#FFFFFF" x="0" y="0" width="536" height="73"></rect>
                    <rect id="Divider" fill="#EEEEEE" x="0" y="72" width="536" height="1"></rect>
                    <g id="Icon-/-search" transform="translate(24.000000, 28.000000)" fill="#92929C">
                        <path d="M15.7753415,14.6511397 L12.8091073,11.7066559 C15.1998553,8.72348153 14.8437142,4.39047218 11.9980061,1.83834968 C9.15229797,-0.713772827 4.80958103,-0.594850315 2.10759115,2.10919233 C-0.594398738,4.81323498 -0.71323097,9.15925117 1.8369541,12.0071212 C4.38713917,14.8549913 8.71685914,15.211403 11.6977688,12.8188386 L14.6400174,15.7633225 C14.7901413,15.9147975 14.9944963,16 15.2076794,16 C15.4208626,16 15.6252176,15.9147975 15.7753415,15.7633225 C16.0748862,15.4531942 16.0748862,14.961268 15.7753415,14.6511397 Z M7.21243888,12.8188386 C4.12148427,12.8188386 1.61577048,10.3112212 1.61577048,7.21791832 C1.61577048,4.12461545 4.12148427,1.61699802 7.21243888,1.61699802 C10.3033935,1.61699802 12.8091073,4.12461545 12.8091073,7.21791832 C12.8091073,8.70337475 12.21946,10.1279907 11.1698811,11.1783671 C10.1203021,12.2287434 8.69676762,12.8188386 7.21243888,12.8188386 Z" id="Shape"></path>
                    </g>
                </g>
            </g>
            <g id="Tabs" transform="translate(0.000000, 96.000000)">
                <g id="Group-6" transform="translate(24.000000, 30.000000)" fill="#837DFF">
                    <rect id="Rectangle" x="0" y="0" width="48" height="3"></rect>
                </g>
                <path d="M46.5292969,11 L45.890625,8.984375 L42.9199219,8.984375 L42.2695312,11 L40.4941406,11 L43.4296875,2.54492188 L45.5097656,2.54492188 L48.4453125,11 L46.5292969,11 Z M44.3613281,4.30273438 L43.3007812,7.61914062 L45.515625,7.61914062 L44.4667969,4.30273438 L44.3613281,4.30273438 Z M49.7753906,11 L49.7753906,2.0703125 L51.4804688,2.0703125 L51.4804688,11 L49.7753906,11 Z M53.3085938,11 L53.3085938,2.0703125 L55.0136719,2.0703125 L55.0136719,11 L53.3085938,11 Z" id="All" fill="#837DFF"></path>
                <path d="M91.0009766,11.2167969 C88.5517578,11.2167969 87.0341797,9.5234375 87.0341797,6.76953125 C87.0341797,4.02148438 88.5458984,2.328125 91.0009766,2.328125 C93.0048828,2.328125 94.5400391,3.65820312 94.6689453,5.49804688 L92.9462891,5.49804688 C92.7763672,4.52539062 92.0087891,3.88671875 91.0009766,3.88671875 C89.6708984,3.88671875 88.8447266,4.98828125 88.8447266,6.76953125 C88.8447266,8.55078125 89.6708984,9.65820312 91.0068359,9.65820312 C92.0205078,9.65820312 92.7822266,9.06054688 92.9521484,8.12890625 L94.6748047,8.12890625 C94.5283203,9.95703125 93.0400391,11.2167969 91.0009766,11.2167969 Z M96.1923828,11 L96.1923828,2.0703125 L97.8681641,2.0703125 L97.8681641,5.59765625 L97.9736328,5.59765625 C98.2724609,4.859375 98.9755859,4.4140625 99.9248047,4.4140625 C101.313477,4.4140625 102.139648,5.28710938 102.139648,6.83984375 L102.139648,11 L100.43457,11 L100.43457,7.24414062 C100.43457,6.34765625 100.018555,5.88476562 99.2451172,5.88476562 C98.3896484,5.88476562 97.8974609,6.453125 97.8974609,7.29101562 L97.8974609,11 L96.1923828,11 Z M106.124023,9.81640625 C106.915039,9.81640625 107.512695,9.3125 107.512695,8.65625 L107.512695,8.18164062 L106.206055,8.26367188 C105.473633,8.31640625 105.116211,8.58007812 105.116211,9.04296875 C105.116211,9.5234375 105.532227,9.81640625 106.124023,9.81640625 Z M105.561523,11.0996094 C104.319336,11.0996094 103.446289,10.3378906 103.446289,9.15429688 C103.446289,7.98242188 104.342773,7.30273438 105.948242,7.20898438 L107.512695,7.11523438 L107.512695,6.58789062 C107.512695,6.04882812 107.125977,5.74414062 106.422852,5.74414062 C105.807617,5.74414062 105.397461,5.95507812 105.256836,6.34179688 L103.686523,6.34179688 C103.797852,5.14648438 104.893555,4.39648438 106.516602,4.39648438 C108.227539,4.39648438 109.194336,5.20507812 109.194336,6.58789062 L109.194336,11 L107.541992,11 L107.541992,10.15625 L107.436523,10.15625 C107.102539,10.7480469 106.399414,11.0996094 105.561523,11.0996094 Z M110.870117,11 L110.870117,4.53710938 L112.522461,4.53710938 L112.522461,5.57421875 L112.62793,5.57421875 C112.926758,4.84765625 113.583008,4.39648438 114.538086,4.39648438 C115.973633,4.39648438 116.74707,5.27539062 116.74707,6.82226562 L116.74707,11 L115.041992,11 L115.041992,7.2265625 C115.041992,6.3359375 114.661133,5.8671875 113.852539,5.8671875 C113.061523,5.8671875 112.575195,6.42382812 112.575195,7.2734375 L112.575195,11 L110.870117,11 Z M118.399414,11 L118.399414,4.53710938 L120.051758,4.53710938 L120.051758,5.57421875 L120.157227,5.57421875 C120.456055,4.84765625 121.112305,4.39648438 122.067383,4.39648438 C123.50293,4.39648438 124.276367,5.27539062 124.276367,6.82226562 L124.276367,11 L122.571289,11 L122.571289,7.2265625 C122.571289,6.3359375 122.19043,5.8671875 121.381836,5.8671875 C120.59082,5.8671875 120.104492,6.42382812 120.104492,7.2734375 L120.104492,11 L118.399414,11 Z M128.723633,5.703125 C127.932617,5.703125 127.375977,6.25390625 127.317383,7.09179688 L130.071289,7.09179688 C130.036133,6.23632812 129.520508,5.703125 128.723633,5.703125 Z M130.106445,9.16015625 L131.694336,9.16015625 C131.442383,10.3730469 130.323242,11.140625 128.741211,11.140625 C126.772461,11.140625 125.612305,9.8984375 125.612305,7.80078125 C125.612305,5.69726562 126.795898,4.39648438 128.717773,4.39648438 C130.62207,4.39648438 131.74707,5.609375 131.74707,7.66015625 L131.74707,8.18164062 L127.311523,8.18164062 L127.311523,8.26953125 C127.334961,9.23046875 127.897461,9.828125 128.788086,9.828125 C129.461914,9.828125 129.924805,9.58789062 130.106445,9.16015625 Z M133.200195,11 L133.200195,2.0703125 L134.905273,2.0703125 L134.905273,11 L133.200195,11 Z M136.52832,6.43554688 C136.52832,5.2109375 137.606445,4.39648438 139.217773,4.39648438 C140.858398,4.39648438 141.825195,5.08203125 141.918945,6.31835938 L140.342773,6.31835938 C140.254883,5.90234375 139.862305,5.64453125 139.229492,5.64453125 C138.620117,5.64453125 138.168945,5.91992188 138.168945,6.33007812 C138.168945,6.64648438 138.444336,6.83984375 139.041992,6.97460938 L140.254883,7.23828125 C141.508789,7.51367188 142.071289,8.04101562 142.071289,9.0078125 C142.071289,10.296875 140.916992,11.140625 139.223633,11.140625 C137.518555,11.140625 136.487305,10.4433594 136.370117,9.20117188 L138.03418,9.20117188 C138.163086,9.640625 138.579102,9.89257812 139.258789,9.89257812 C139.920898,9.89257812 140.37793,9.6171875 140.37793,9.20117188 C140.37793,8.88476562 140.131836,8.69140625 139.563477,8.56835938 L138.391602,8.3046875 C137.137695,8.02929688 136.52832,7.43164062 136.52832,6.43554688 Z" id="Channels" fill="#92929C"></path>
                <path d="M176.217773,11 L174.448242,11 L174.448242,2.54492188 L179.985352,2.54492188 L179.985352,4.05664062 L176.217773,4.05664062 L176.217773,6.25976562 L179.657227,6.25976562 L179.657227,7.70703125 L176.217773,7.70703125 L176.217773,11 Z M181.461914,11 L181.461914,4.53710938 L183.166992,4.53710938 L183.166992,11 L181.461914,11 Z M182.317383,3.5703125 C181.790039,3.5703125 181.350586,3.13671875 181.350586,2.59179688 C181.350586,2.046875 181.790039,1.61914062 182.317383,1.61914062 C182.850586,1.61914062 183.28418,2.046875 183.28418,2.59179688 C183.28418,3.13671875 182.850586,3.5703125 182.317383,3.5703125 Z M184.948242,11 L184.948242,2.0703125 L186.65332,2.0703125 L186.65332,11 L184.948242,11 Z M191.217773,5.703125 C190.426758,5.703125 189.870117,6.25390625 189.811523,7.09179688 L192.56543,7.09179688 C192.530273,6.23632812 192.014648,5.703125 191.217773,5.703125 Z M192.600586,9.16015625 L194.188477,9.16015625 C193.936523,10.3730469 192.817383,11.140625 191.235352,11.140625 C189.266602,11.140625 188.106445,9.8984375 188.106445,7.80078125 C188.106445,5.69726562 189.290039,4.39648438 191.211914,4.39648438 C193.116211,4.39648438 194.241211,5.609375 194.241211,7.66015625 L194.241211,8.18164062 L189.805664,8.18164062 L189.805664,8.26953125 C189.829102,9.23046875 190.391602,9.828125 191.282227,9.828125 C191.956055,9.828125 192.418945,9.58789062 192.600586,9.16015625 Z M195.489258,6.43554688 C195.489258,5.2109375 196.567383,4.39648438 198.178711,4.39648438 C199.819336,4.39648438 200.786133,5.08203125 200.879883,6.31835938 L199.303711,6.31835938 C199.21582,5.90234375 198.823242,5.64453125 198.19043,5.64453125 C197.581055,5.64453125 197.129883,5.91992188 197.129883,6.33007812 C197.129883,6.64648438 197.405273,6.83984375 198.00293,6.97460938 L199.21582,7.23828125 C200.469727,7.51367188 201.032227,8.04101562 201.032227,9.0078125 C201.032227,10.296875 199.87793,11.140625 198.18457,11.140625 C196.479492,11.140625 195.448242,10.4433594 195.331055,9.20117188 L196.995117,9.20117188 C197.124023,9.640625 197.540039,9.89257812 198.219727,9.89257812 C198.881836,9.89257812 199.338867,9.6171875 199.338867,9.20117188 C199.338867,8.88476562 199.092773,8.69140625 198.524414,8.56835938 L197.352539,8.3046875 C196.098633,8.02929688 195.489258,7.43164062 195.489258,6.43554688 Z" id="Files" fill="#92929C"></path>
                <path d="M242.15625,11 L240.515625,11 L240.515625,5.34570312 L240.421875,5.34570312 L238.271484,10.5429688 L237.09375,10.5429688 L234.9375,5.34570312 L234.84375,5.34570312 L234.84375,11 L233.203125,11 L233.203125,2.54492188 L235.289062,2.54492188 L237.626953,8.25195312 L237.732422,8.25195312 L240.076172,2.54492188 L242.15625,2.54492188 L242.15625,11 Z M246.832031,5.703125 C246.041016,5.703125 245.484375,6.25390625 245.425781,7.09179688 L248.179688,7.09179688 C248.144531,6.23632812 247.628906,5.703125 246.832031,5.703125 Z M248.214844,9.16015625 L249.802734,9.16015625 C249.550781,10.3730469 248.431641,11.140625 246.849609,11.140625 C244.880859,11.140625 243.720703,9.8984375 243.720703,7.80078125 C243.720703,5.69726562 244.904297,4.39648438 246.826172,4.39648438 C248.730469,4.39648438 249.855469,5.609375 249.855469,7.66015625 L249.855469,8.18164062 L245.419922,8.18164062 L245.419922,8.26953125 C245.443359,9.23046875 246.005859,9.828125 246.896484,9.828125 C247.570312,9.828125 248.033203,9.58789062 248.214844,9.16015625 Z M251.103516,6.43554688 C251.103516,5.2109375 252.181641,4.39648438 253.792969,4.39648438 C255.433594,4.39648438 256.400391,5.08203125 256.494141,6.31835938 L254.917969,6.31835938 C254.830078,5.90234375 254.4375,5.64453125 253.804688,5.64453125 C253.195312,5.64453125 252.744141,5.91992188 252.744141,6.33007812 C252.744141,6.64648438 253.019531,6.83984375 253.617188,6.97460938 L254.830078,7.23828125 C256.083984,7.51367188 256.646484,8.04101562 256.646484,9.0078125 C256.646484,10.296875 255.492188,11.140625 253.798828,11.140625 C252.09375,11.140625 251.0625,10.4433594 250.945312,9.20117188 L252.609375,9.20117188 C252.738281,9.640625 253.154297,9.89257812 253.833984,9.89257812 C254.496094,9.89257812 254.953125,9.6171875 254.953125,9.20117188 C254.953125,8.88476562 254.707031,8.69140625 254.138672,8.56835938 L252.966797,8.3046875 C251.712891,8.02929688 251.103516,7.43164062 251.103516,6.43554688 Z M257.900391,6.43554688 C257.900391,5.2109375 258.978516,4.39648438 260.589844,4.39648438 C262.230469,4.39648438 263.197266,5.08203125 263.291016,6.31835938 L261.714844,6.31835938 C261.626953,5.90234375 261.234375,5.64453125 260.601562,5.64453125 C259.992188,5.64453125 259.541016,5.91992188 259.541016,6.33007812 C259.541016,6.64648438 259.816406,6.83984375 260.414062,6.97460938 L261.626953,7.23828125 C262.880859,7.51367188 263.443359,8.04101562 263.443359,9.0078125 C263.443359,10.296875 262.289062,11.140625 260.595703,11.140625 C258.890625,11.140625 257.859375,10.4433594 257.742188,9.20117188 L259.40625,9.20117188 C259.535156,9.640625 259.951172,9.89257812 260.630859,9.89257812 C261.292969,9.89257812 261.75,9.6171875 261.75,9.20117188 C261.75,8.88476562 261.503906,8.69140625 260.935547,8.56835938 L259.763672,8.3046875 C258.509766,8.02929688 257.900391,7.43164062 257.900391,6.43554688 Z M267.175781,9.81640625 C267.966797,9.81640625 268.564453,9.3125 268.564453,8.65625 L268.564453,8.18164062 L267.257812,8.26367188 C266.525391,8.31640625 266.167969,8.58007812 266.167969,9.04296875 C266.167969,9.5234375 266.583984,9.81640625 267.175781,9.81640625 Z M266.613281,11.0996094 C265.371094,11.0996094 264.498047,10.3378906 264.498047,9.15429688 C264.498047,7.98242188 265.394531,7.30273438 267,7.20898438 L268.564453,7.11523438 L268.564453,6.58789062 C268.564453,6.04882812 268.177734,5.74414062 267.474609,5.74414062 C266.859375,5.74414062 266.449219,5.95507812 266.308594,6.34179688 L264.738281,6.34179688 C264.849609,5.14648438 265.945312,4.39648438 267.568359,4.39648438 C269.279297,4.39648438 270.246094,5.20507812 270.246094,6.58789062 L270.246094,11 L268.59375,11 L268.59375,10.15625 L268.488281,10.15625 C268.154297,10.7480469 267.451172,11.0996094 266.613281,11.0996094 Z M274.792969,9.55859375 C275.71875,9.55859375 276.269531,8.84960938 276.269531,7.71289062 C276.269531,6.57617188 275.712891,5.86132812 274.792969,5.86132812 C273.873047,5.86132812 273.339844,6.57617188 273.339844,7.70703125 C273.339844,8.84960938 273.867188,9.55859375 274.792969,9.55859375 Z M274.769531,13.4492188 C273.052734,13.4492188 271.916016,12.6933594 271.810547,11.5566406 L273.498047,11.5566406 C273.585938,11.9550781 274.066406,12.2070312 274.804688,12.2070312 C275.71875,12.2070312 276.251953,11.7851562 276.251953,11.0585938 L276.251953,9.86328125 L276.146484,9.86328125 C275.789062,10.5429688 275.109375,10.90625 274.201172,10.90625 C272.589844,10.90625 271.587891,9.65820312 271.587891,7.71289062 C271.587891,5.70898438 272.595703,4.43164062 274.236328,4.43164062 C275.109375,4.43164062 275.853516,4.86523438 276.199219,5.57421875 L276.304688,5.57421875 L276.304688,4.53710938 L277.957031,4.53710938 L277.957031,10.9765625 C277.957031,12.4941406 276.720703,13.4492188 274.769531,13.4492188 Z M282.462891,5.703125 C281.671875,5.703125 281.115234,6.25390625 281.056641,7.09179688 L283.810547,7.09179688 C283.775391,6.23632812 283.259766,5.703125 282.462891,5.703125 Z M283.845703,9.16015625 L285.433594,9.16015625 C285.181641,10.3730469 284.0625,11.140625 282.480469,11.140625 C280.511719,11.140625 279.351562,9.8984375 279.351562,7.80078125 C279.351562,5.69726562 280.535156,4.39648438 282.457031,4.39648438 C284.361328,4.39648438 285.486328,5.609375 285.486328,7.66015625 L285.486328,8.18164062 L281.050781,8.18164062 L281.050781,8.26953125 C281.074219,9.23046875 281.636719,9.828125 282.527344,9.828125 C283.201172,9.828125 283.664062,9.58789062 283.845703,9.16015625 Z M286.734375,6.43554688 C286.734375,5.2109375 287.8125,4.39648438 289.423828,4.39648438 C291.064453,4.39648438 292.03125,5.08203125 292.125,6.31835938 L290.548828,6.31835938 C290.460938,5.90234375 290.068359,5.64453125 289.435547,5.64453125 C288.826172,5.64453125 288.375,5.91992188 288.375,6.33007812 C288.375,6.64648438 288.650391,6.83984375 289.248047,6.97460938 L290.460938,7.23828125 C291.714844,7.51367188 292.277344,8.04101562 292.277344,9.0078125 C292.277344,10.296875 291.123047,11.140625 289.429688,11.140625 C287.724609,11.140625 286.693359,10.4433594 286.576172,9.20117188 L288.240234,9.20117188 C288.369141,9.640625 288.785156,9.89257812 289.464844,9.89257812 C290.126953,9.89257812 290.583984,9.6171875 290.583984,9.20117188 C290.583984,8.88476562 290.337891,8.69140625 289.769531,8.56835938 L288.597656,8.3046875 C287.34375,8.02929688 286.734375,7.43164062 286.734375,6.43554688 Z" id="Messages" fill="#92929C"></path>
                <path d="M327.939453,11 L326.169922,11 L326.169922,4.05664062 L323.632812,4.05664062 L323.632812,2.54492188 L330.476562,2.54492188 L330.476562,4.05664062 L327.939453,4.05664062 L327.939453,11 Z M334.203125,9.81640625 C334.994141,9.81640625 335.591797,9.3125 335.591797,8.65625 L335.591797,8.18164062 L334.285156,8.26367188 C333.552734,8.31640625 333.195312,8.58007812 333.195312,9.04296875 C333.195312,9.5234375 333.611328,9.81640625 334.203125,9.81640625 Z M333.640625,11.0996094 C332.398438,11.0996094 331.525391,10.3378906 331.525391,9.15429688 C331.525391,7.98242188 332.421875,7.30273438 334.027344,7.20898438 L335.591797,7.11523438 L335.591797,6.58789062 C335.591797,6.04882812 335.205078,5.74414062 334.501953,5.74414062 C333.886719,5.74414062 333.476562,5.95507812 333.335938,6.34179688 L331.765625,6.34179688 C331.876953,5.14648438 332.972656,4.39648438 334.595703,4.39648438 C336.306641,4.39648438 337.273438,5.20507812 337.273438,6.58789062 L337.273438,11 L335.621094,11 L335.621094,10.15625 L335.515625,10.15625 C335.181641,10.7480469 334.478516,11.0996094 333.640625,11.0996094 Z M338.802734,6.43554688 C338.802734,5.2109375 339.880859,4.39648438 341.492188,4.39648438 C343.132812,4.39648438 344.099609,5.08203125 344.193359,6.31835938 L342.617188,6.31835938 C342.529297,5.90234375 342.136719,5.64453125 341.503906,5.64453125 C340.894531,5.64453125 340.443359,5.91992188 340.443359,6.33007812 C340.443359,6.64648438 340.71875,6.83984375 341.316406,6.97460938 L342.529297,7.23828125 C343.783203,7.51367188 344.345703,8.04101562 344.345703,9.0078125 C344.345703,10.296875 343.191406,11.140625 341.498047,11.140625 C339.792969,11.140625 338.761719,10.4433594 338.644531,9.20117188 L340.308594,9.20117188 C340.4375,9.640625 340.853516,9.89257812 341.533203,9.89257812 C342.195312,9.89257812 342.652344,9.6171875 342.652344,9.20117188 C342.652344,8.88476562 342.40625,8.69140625 341.837891,8.56835938 L340.666016,8.3046875 C339.412109,8.02929688 338.802734,7.43164062 338.802734,6.43554688 Z M347.615234,7.0625 L349.777344,4.53710938 L351.716797,4.53710938 L349.255859,7.30859375 L351.886719,11 L349.865234,11 L347.978516,8.375 L347.509766,8.85546875 L347.509766,11 L345.804688,11 L345.804688,2.0703125 L347.509766,2.0703125 L347.509766,7.0625 L347.615234,7.0625 Z M352.818359,6.43554688 C352.818359,5.2109375 353.896484,4.39648438 355.507812,4.39648438 C357.148438,4.39648438 358.115234,5.08203125 358.208984,6.31835938 L356.632812,6.31835938 C356.544922,5.90234375 356.152344,5.64453125 355.519531,5.64453125 C354.910156,5.64453125 354.458984,5.91992188 354.458984,6.33007812 C354.458984,6.64648438 354.734375,6.83984375 355.332031,6.97460938 L356.544922,7.23828125 C357.798828,7.51367188 358.361328,8.04101562 358.361328,9.0078125 C358.361328,10.296875 357.207031,11.140625 355.513672,11.140625 C353.808594,11.140625 352.777344,10.4433594 352.660156,9.20117188 L354.324219,9.20117188 C354.453125,9.640625 354.869141,9.89257812 355.548828,9.89257812 C356.210938,9.89257812 356.667969,9.6171875 356.667969,9.20117188 C356.667969,8.88476562 356.421875,8.69140625 355.853516,8.56835938 L354.681641,8.3046875 C353.427734,8.02929688 352.818359,7.43164062 352.818359,6.43554688 Z" id="Tasks" fill="#92929C"></path>
                <path d="M447.242188,6.41210938 C447.242188,5.36328125 448.255859,4.57226562 449.597656,4.57226562 C450.921875,4.57226562 451.841797,5.22851562 451.976562,6.265625 L450.980469,6.265625 C450.845703,5.76171875 450.353516,5.42773438 449.591797,5.42773438 C448.841797,5.42773438 448.255859,5.80859375 448.255859,6.37109375 C448.255859,6.8046875 448.607422,7.07421875 449.351562,7.25585938 L450.324219,7.49023438 C451.513672,7.77734375 452.087891,8.29296875 452.087891,9.20117188 C452.087891,10.3320312 450.992188,11.1113281 449.556641,11.1113281 C448.150391,11.1113281 447.183594,10.4375 447.072266,9.38867188 L448.109375,9.38867188 C448.279297,9.921875 448.783203,10.2617188 449.591797,10.2617188 C450.441406,10.2617188 451.050781,9.85742188 451.050781,9.27734375 C451.050781,8.84375 450.722656,8.55078125 450.048828,8.38671875 L448.964844,8.12304688 C447.78125,7.8359375 447.242188,7.32617188 447.242188,6.41210938 Z M453.728516,11 L453.728516,2.17578125 L454.736328,2.17578125 L454.736328,5.6796875 L454.830078,5.6796875 C455.146484,4.98242188 455.808594,4.57226562 456.775391,4.57226562 C458.111328,4.57226562 458.955078,5.42773438 458.955078,6.91015625 L458.955078,11 L457.947266,11 L457.947266,7.15625 C457.947266,6.03710938 457.443359,5.48046875 456.488281,5.48046875 C455.357422,5.48046875 454.736328,6.1953125 454.736328,7.26171875 L454.736328,11 L453.728516,11 Z M463.390625,11.1113281 C461.591797,11.1113281 460.478516,9.86914062 460.478516,7.84179688 C460.478516,5.80859375 461.591797,4.57226562 463.390625,4.57226562 C465.189453,4.57226562 466.302734,5.80859375 466.302734,7.84179688 C466.302734,9.86914062 465.189453,11.1113281 463.390625,11.1113281 Z M463.390625,10.203125 C464.585938,10.203125 465.259766,9.3359375 465.259766,7.84179688 C465.259766,6.34179688 464.585938,5.48046875 463.390625,5.48046875 C462.195312,5.48046875 461.521484,6.34179688 461.521484,7.84179688 C461.521484,9.3359375 462.195312,10.203125 463.390625,10.203125 Z M475.830078,4.68359375 L474.060547,11 L473.035156,11 L471.623047,6.11328125 L471.529297,6.11328125 L470.123047,11 L469.103516,11 L467.333984,4.68359375 L468.353516,4.68359375 L469.595703,9.734375 L469.689453,9.734375 L471.101562,4.68359375 L472.068359,4.68359375 L473.480469,9.734375 L473.574219,9.734375 L474.816406,4.68359375 L475.830078,4.68359375 Z M480.986328,11 L480.986328,5.52734375 L479.9375,5.52734375 L479.9375,4.68359375 L480.986328,4.68359375 L480.986328,3.98046875 C480.986328,2.72070312 481.619141,2.1171875 482.820312,2.1171875 C483.066406,2.1171875 483.289062,2.13476562 483.5,2.17578125 L483.5,2.99609375 C483.376953,2.97265625 483.207031,2.96679688 483.025391,2.96679688 C482.298828,2.96679688 481.994141,3.31835938 481.994141,4.00976562 L481.994141,4.68359375 L483.441406,4.68359375 L483.441406,5.52734375 L481.994141,5.52734375 L481.994141,11 L480.986328,11 Z M484.929688,11 L484.929688,4.68359375 L485.9375,4.68359375 L485.9375,11 L484.929688,11 Z M485.433594,3.46484375 C485.046875,3.46484375 484.730469,3.1484375 484.730469,2.76171875 C484.730469,2.375 485.046875,2.05859375 485.433594,2.05859375 C485.820312,2.05859375 486.136719,2.375 486.136719,2.76171875 C486.136719,3.1484375 485.820312,3.46484375 485.433594,3.46484375 Z M487.917969,11 L487.917969,2.17578125 L488.925781,2.17578125 L488.925781,11 L487.917969,11 Z M491.304688,3.04882812 L492.3125,3.04882812 L492.3125,4.68359375 L493.71875,4.68359375 L493.71875,5.52734375 L492.3125,5.52734375 L492.3125,9.1015625 C492.3125,9.84570312 492.59375,10.1621094 493.25,10.1621094 C493.431641,10.1621094 493.53125,10.15625 493.71875,10.1386719 L493.71875,10.9882812 C493.519531,11.0234375 493.326172,11.046875 493.126953,11.046875 C491.826172,11.046875 491.304688,10.5664062 491.304688,9.359375 L491.304688,5.52734375 L490.285156,5.52734375 L490.285156,4.68359375 L491.304688,4.68359375 L491.304688,3.04882812 Z M497.761719,5.46289062 C496.753906,5.46289062 496.050781,6.20117188 495.974609,7.3203125 L499.455078,7.3203125 C499.431641,6.20117188 498.763672,5.46289062 497.761719,5.46289062 Z M499.425781,9.36523438 L500.433594,9.36523438 C500.140625,10.4433594 499.15625,11.1113281 497.773438,11.1113281 C496.021484,11.1113281 494.925781,9.84570312 494.925781,7.84765625 C494.925781,5.86132812 496.039062,4.57226562 497.773438,4.57226562 C499.478516,4.57226562 500.515625,5.78515625 500.515625,7.74804688 L500.515625,8.13476562 L495.974609,8.13476562 L495.974609,8.18164062 C496.027344,9.4296875 496.724609,10.2207031 497.796875,10.2207031 C498.611328,10.2207031 499.162109,9.921875 499.425781,9.36523438 Z M502.097656,11 L502.097656,4.68359375 L503.058594,4.68359375 L503.058594,5.62109375 L503.152344,5.62109375 C503.339844,5.00585938 504.066406,4.57226562 504.904297,4.57226562 C505.068359,4.57226562 505.279297,4.58398438 505.408203,4.6015625 L505.408203,5.609375 C505.326172,5.5859375 504.962891,5.55078125 504.763672,5.55078125 C503.802734,5.55078125 503.105469,6.1953125 503.105469,7.0859375 L503.105469,11 L502.097656,11 Z M506.521484,6.41210938 C506.521484,5.36328125 507.535156,4.57226562 508.876953,4.57226562 C510.201172,4.57226562 511.121094,5.22851562 511.255859,6.265625 L510.259766,6.265625 C510.125,5.76171875 509.632812,5.42773438 508.871094,5.42773438 C508.121094,5.42773438 507.535156,5.80859375 507.535156,6.37109375 C507.535156,6.8046875 507.886719,7.07421875 508.630859,7.25585938 L509.603516,7.49023438 C510.792969,7.77734375 511.367188,8.29296875 511.367188,9.20117188 C511.367188,10.3320312 510.271484,11.1113281 508.835938,11.1113281 C507.429688,11.1113281 506.462891,10.4375 506.351562,9.38867188 L507.388672,9.38867188 C507.558594,9.921875 508.0625,10.2617188 508.871094,10.2617188 C509.720703,10.2617188 510.330078,9.85742188 510.330078,9.27734375 C510.330078,8.84375 510.001953,8.55078125 509.328125,8.38671875 L508.244141,8.12304688 C507.060547,7.8359375 506.521484,7.32617188 506.521484,6.41210938 Z" id="show-filters" fill="#837DFF"></path>
                <rect id="Divider" fill="#EEEEEE" x="0" y="33" width="536" height="1"></rect>
            </g>
            <rect id="Rectangle" fill="#EEEEEE" x="56" y="28" width="131" height="16" rx="8"></rect>
            <rect id="Rectangle" fill="#EEEEEE" x="199" y="28" width="39" height="16" rx="8"></rect>
            <rect id="Rectangle" fill="#EEEEEE" x="250" y="28" width="90" height="16" rx="8"></rect>
        </g>
    </g>
</svg>