<?xml version="1.0" encoding="utf-8"?>
<!-- Generator: Adobe Illustrator 22.0.0, SVG Export Plug-In . SVG Version: 6.00 Build 0)  -->
<svg version="1.1" id="Layer_1" xmlns="http://www.w3.org/2000/svg" xmlns:xlink="http://www.w3.org/1999/xlink" x="0px" y="0px"
	 viewBox="0 0 427 135" style="enable-background:new 0 0 427 135;" xml:space="preserve">
<style type="text/css">
	.st0{fill:#FFFFFF;}
	.st1{fill:#837DFF;}
	.st2{fill:#444444;}
	.st3{fill:#F5F5F7;}
	.st4{fill:#FFFFFF;fill-opacity:0;}
	.st5{enable-background:new    ;}
	.st6{fill:#FFFFFF;stroke:#000000;stroke-linecap:round;stroke-linejoin:round;stroke-opacity:0.8;}
</style>
<title>Group 9</title>
<desc>Created with Sketch.</desc>
<g id="Web---Desktop">
	<g id="_x30_05_x5F_product_x5F_documents" transform="translate(-759.000000, -1655.000000)">
		<g id="Sécurité-système-de-lien" transform="translate(730.000000, 1576.000000)">
			<g id="Group-9" transform="translate(29.000000, 79.000000)">
				<g id="Group-11">
					<g id="Group-10">
						<g id="Rectangle">
							<g>
								<path id="path-1_1_" class="st0" d="M4.8,0h417.4c2.7,0,4.8,2.1,4.8,4.8v52.4c0,2.7-2.1,4.8-4.8,4.8H4.8
									C2.1,62,0,59.9,0,57.2V4.8C0,2.1,2.1,0,4.8,0z"/>
							</g>
						</g>
						<g id="link" transform="translate(19.191011, 19.076923)">
							<path id="Shape" class="st1" d="M9.6,18.5l-2.1,2.1c-1.2,1.2-3,1.2-4.2,0s-1.2-3,0-4.2L8.7,11c1.1-1.1,2.9-1.2,4.1-0.1
								l0.1,0.1c0.5,0.5,1.2,0.5,1.7,0s0.5-1.2,0-1.7c-0.1-0.1-0.1-0.2-0.2-0.3c-2.1-1.8-5.3-1.7-7.3,0.3l-5.5,5.4
								c-1.9,2.1-1.9,5.4,0.2,7.4s5.3,2.1,7.4,0.2l2.1-2c0.4-0.5,0.4-1.2,0-1.6C10.8,18.2,10.1,18.1,9.6,18.5z M22.4,1.6
								c-2.1-2.1-5.5-2.1-7.6,0l-2.1,2c-0.4,0.5-0.4,1.2,0,1.6s1.1,0.5,1.6,0.1l2.1-2.1c1.2-1.2,3-1.2,4.2,0c1.2,1.2,1.2,3,0,4.2
								l-5.4,5.4c-1.1,1.2-2.9,1.2-4,0.2L11,12.8c-0.5-0.5-1.2-0.5-1.7,0s-0.5,1.2,0,1.7c0.1,0.1,0.2,0.2,0.3,0.3
								c2.1,1.8,5.3,1.7,7.3-0.3l5.5-5.4C24.5,7,24.5,3.7,22.4,1.6z"/>
						</g>
						<g id="Icon-_x2F_-lock-_x2F_-closed" transform="translate(383.820225, 19.076923)">
							<path id="Shape_1_" class="st2" d="M17.8,8.3V6c0-3.3-2.6-6-5.9-6S6,2.7,6,6v2.4C4,8.4,2.5,10,2.5,12v8.3
								c0,2,1.6,3.6,3.5,3.6h11.8c2,0,3.5-1.6,3.5-3.6V12C21.4,9.9,19.8,8.3,17.8,8.3z M8.4,6c0-2,1.6-3.6,3.5-3.6S15.5,4,15.5,6
								v2.4H8.4V6z M19,20.3c0,0.7-0.5,1.2-1.2,1.2H6c-0.7,0-1.2-0.5-1.2-1.2V12c0-0.7,0.5-1.2,1.2-1.2h11.8c0.7,0,1.2,0.5,1.2,1.2
								V20.3z"/>
						</g>
						<path id="Rectangle_1_" class="st3" d="M60.5,23.8h305.9c4.3,0,7.8,3.5,7.8,7.8l0,0c0,4.3-3.5,7.8-7.8,7.8H60.5
							c-4.3,0-7.8-3.5-7.8-7.8l0,0C52.8,27.3,56.2,23.8,60.5,23.8z"/>
					</g>
					<g id="Button-_x2F_-Medium-_x2F_-Primary-_x2F_-Default" transform="translate(263.000000, 81.000000)">
						<g id="Button-medium">
							<g id="Shape-_x2F_-Fill-_x2F_-4px-Radius" transform="translate(0.500000, 0.000000)">
								<g id="Base">
									<path id="path-3_1_" class="st1" d="M4,0h155c2.2,0,4,1.8,4,4v32c0,2.2-1.8,4-4,4H4c-2.2,0-4-1.8-4-4V4C0,1.8,1.8,0,4,0z"
										/>
								</g>
								<g id="State-_x2F_-Button-_x2F_-Normal">
									<rect id="Base_1_" class="st4" width="163" height="40"/>
								</g>
							</g>
							<g class="st5">
								<path class="st0" d="M16,20.4c0-3.7,1.9-5.9,5.1-5.9c2.5,0,4.4,1.6,4.7,3.9H24c-0.3-1.4-1.5-2.3-2.9-2.3
									c-2,0-3.3,1.6-3.3,4.3c0,2.6,1.3,4.3,3.3,4.3c1.5,0,2.6-0.8,2.9-2.1h1.7c-0.3,2.2-2.2,3.7-4.7,3.7C17.9,26.3,16,24,16,20.4z
									"/>
								<path class="st0" d="M27.4,21.7c0-2.7,1.5-4.4,4-4.4s4,1.7,4,4.4c0,2.8-1.5,4.4-4,4.4C28.9,26.2,27.4,24.5,27.4,21.7z
									 M33.7,21.7c0-1.8-0.8-2.9-2.3-2.9s-2.3,1.1-2.3,2.9c0,1.9,0.8,2.9,2.3,2.9C32.9,24.7,33.7,23.6,33.7,21.7z"/>
								<path class="st0" d="M45.4,21.7c0,2.7-1.4,4.4-3.5,4.4c-1.2,0-2.2-0.5-2.6-1.4h-0.1v4.1h-1.7V17.5h1.6v1.4h0.1
									c0.5-1,1.5-1.5,2.7-1.5C44,17.4,45.4,19,45.4,21.7z M43.7,21.7c0-1.8-0.9-2.9-2.3-2.9c-1.4,0-2.3,1.1-2.3,2.9
									s0.9,2.9,2.3,2.9S43.7,23.5,43.7,21.7z"/>
								<path class="st0" d="M47.2,29v-1.4c0.1,0,0.4,0,0.5,0c0.8,0,1.2-0.3,1.5-1.2l0.1-0.4l-3.1-8.5H48l2.1,6.8h0.1l2.1-6.8h1.8
									l-3.2,8.9c-0.7,2.1-1.5,2.7-3.3,2.7C47.8,29.1,47.4,29.1,47.2,29z"/>
								<path class="st0" d="M63.6,17.3c1.9,0,3.2,0.9,3.3,2.4h-1.6c-0.2-0.6-0.8-1-1.7-1c-0.9,0-1.6,0.4-1.6,1.1
									c0,0.5,0.4,0.8,1.4,1l1.4,0.3c1.6,0.4,2.4,1.1,2.4,2.3c0,1.6-1.5,2.7-3.5,2.7s-3.3-0.9-3.5-2.4h1.7c0.2,0.7,0.8,1.1,1.9,1.1
									c1,0,1.8-0.5,1.8-1.1c0-0.5-0.4-0.8-1.2-1l-1.5-0.3c-1.6-0.4-2.4-1.1-2.4-2.4C60.2,18.4,61.6,17.3,63.6,17.3z"/>
								<path class="st0" d="M76.3,23.7c-0.4,1.5-1.7,2.5-3.7,2.5c-2.4,0-3.9-1.7-3.9-4.4s1.5-4.4,3.9-4.4s3.8,1.6,3.8,4.3v0.6h-6
									v0.1c0.1,1.5,0.9,2.4,2.3,2.4c1,0,1.7-0.4,2-1h1.6V23.7z M70.4,21h4.3c0-1.3-0.9-2.2-2.1-2.2S70.5,19.6,70.4,21z"/>
								<path class="st0" d="M84,20.3c-0.2-0.8-0.9-1.4-2-1.4c-1.4,0-2.3,1.1-2.3,2.9s0.9,2.9,2.3,2.9c1.1,0,1.8-0.5,2-1.4h1.6
									c-0.2,1.7-1.5,2.9-3.6,2.9c-2.5,0-4-1.7-4-4.4s1.5-4.4,4-4.4c2.1,0,3.4,1.2,3.6,2.9H84z"/>
								<path class="st0" d="M94.7,26h-1.6v-1.4H93c-0.4,1-1.3,1.5-2.6,1.5c-1.9,0-2.9-1.1-2.9-3.1v-5.5h1.7v5.1c0,1.4,0.6,2,1.8,2
									c1.4,0,2.1-0.8,2.1-2.1v-5h1.7L94.7,26L94.7,26z"/>
								<path class="st0" d="M97.1,17.5h1.6v1.3h0.1c0.2-0.8,1.2-1.4,2.3-1.4c0.2,0,0.6,0,0.8,0.1v1.7c-0.1,0-0.6-0.1-0.9-0.1
									c-1.3,0-2.2,0.8-2.2,2v5h-1.7C97.1,26.1,97.1,17.5,97.1,17.5z"/>
								<path class="st0" d="M110.5,23.7c-0.4,1.5-1.7,2.5-3.7,2.5c-2.4,0-3.9-1.7-3.9-4.4s1.5-4.4,3.9-4.4s3.8,1.6,3.8,4.3v0.6h-6
									v0.1c0.1,1.5,0.9,2.4,2.3,2.4c1,0,1.7-0.4,2-1h1.6V23.7z M104.6,21h4.3c0-1.3-0.9-2.2-2.1-2.2S104.7,19.6,104.6,21z"/>
								<path class="st0" d="M112.2,21.7c0-2.7,1.4-4.4,3.5-4.4c1.2,0,2.1,0.6,2.6,1.5h0.1v-4.7h1.7V26h-1.6v-1.3h-0.1
									c-0.5,0.9-1.5,1.5-2.7,1.5C113.6,26.1,112.2,24.4,112.2,21.7z M113.9,21.7c0,1.8,0.9,2.9,2.3,2.9s2.3-1.1,2.3-2.9
									s-0.9-2.9-2.3-2.9C114.8,18.9,113.9,20,113.9,21.7z"/>
								<path class="st0" d="M127.1,14.2h1.7V26h-1.7C127.1,26,127.1,14.2,127.1,14.2z"/>
								<path class="st0" d="M131.1,14.9c0-0.6,0.5-1.1,1.1-1.1s1.1,0.5,1.1,1.1s-0.5,1.1-1.1,1.1S131.1,15.5,131.1,14.9z
									 M131.3,17.5h1.7V26h-1.7V17.5z"/>
								<path class="st0" d="M135.5,17.5h1.6v1.4h0.1c0.4-0.9,1.3-1.5,2.5-1.5c1.9,0,2.9,1.1,2.9,3.2V26H141v-5.1c0-1.4-0.6-2-1.8-2
									s-2,0.8-2,2.2v5h-1.7V17.5z"/>
								<path class="st0" d="M150.3,17.5h2l-3.5,3.6l3.7,4.9h-2.1l-2.9-3.8l-0.7,0.7v3h-1.7V14.2h1.7V21h0.1L150.3,17.5z"/>
							</g>
						</g>
					</g>
					<g id="Cursor-_x2F_-Pointer" transform="translate(338.000000, 113.000000)">
						<g id="Imported-Layers-Copy-4">
							<g>
								<path id="path-5_1_" d="M4,10L3.1,8.6C2.5,7.7,1.2,7.4,0.2,7.9l0.2-0.1C0.2,7.9,0.1,8.2,0.2,8.5l1.2,3.2
									c0.2,0.5,0.7,1.2,1.1,1.6c0,0,2.5,2,2.5,2.8v1h4l1-2l1,2h1v-1c0-0.8,1.5-3.2,1.5-3.2c0.3-0.5,0.5-1.3,0.5-1.8V7
									c0-0.9-0.8-1.6-1.7-1.6c-0.5,0-0.8,0.4-0.8,0.8v0.3c0-0.9-0.8-1.6-1.7-1.6C9.3,4.9,9,5.3,9,5.7V6c0-0.9-0.8-1.6-1.7-1.6
									c-0.5,0-0.8,0.4-0.8,0.8v0.3c0-0.1,0-0.3,0-0.3L6,1c0-0.6-0.5-1-1-1C4.4,0,4,0.4,4,1v4V10z M11,9h1v4h-1V9L11,9z M9,9h1v4H9
									V9L9,9z M7,9h1v4H7V9L7,9z"/>
							</g>
							<path class="st6" d="M3.5,8.3V5V1c0-0.8,0.7-1.5,1.5-1.5S6.5,0.1,6.6,1l0.2,3C6.9,3.9,7,3.9,7.2,3.9c0.7,0,1.3,0.3,1.7,0.8
								c0.2-0.2,0.5-0.3,0.8-0.3c0.7,0,1.3,0.3,1.7,0.8C11.7,5,12,4.9,12.3,4.9c1.2,0,2.2,0.9,2.2,2.1v4c0,0.6-0.3,1.5-0.6,2.1
								c0,0.1-0.1,0.2-0.2,0.4c-0.2,0.3-0.3,0.6-0.5,0.9c-0.1,0.1-0.1,0.3-0.2,0.4c-0.3,0.6-0.5,1.1-0.5,1.2v1.5h-1.8L10,16.1
								l-0.7,1.4H4.5V16c0-0.1-0.3-0.5-0.7-0.9c-0.1-0.1-0.3-0.3-0.4-0.4c-0.3-0.3-0.5-0.5-0.8-0.8c-0.2-0.1-0.3-0.3-0.4-0.3
								c-0.5-0.4-1-1.2-1.2-1.8l-1.2-3.2c-0.2-0.4,0-0.9,0.3-1.2l0,0c0,0,0.1,0,0.1-0.1h0.1l0,0C1.4,6.9,2.8,7.3,3.5,8.3z M0,7.5
								l0.1-0.1h0.1l0.5,0.9H0.4L0,7.5z M11.5,13v-2V13 M11.5,9v2V9 M9.5,13v-2V13 M9.5,9v2V9 M7.5,13v-2V13 M7.5,9v2V9"/>
						</g>
					</g>
				</g>
			</g>
		</g>
	</g>
</g>
</svg>
