<svg xmlns="http://www.w3.org/2000/svg" width="22" height="22" viewBox="0 0 22 22">
    <g fill="#92929C" fill-rule="evenodd">
        <path d="M10.868.2C5.03.2.3 4.931.3 10.768c0 5.836 4.731 10.567 10.568 10.567 5.836 0 10.567-4.73 10.567-10.567A10.568 10.568 0 0 0 10.868.2zm0 19.022a8.454 8.454 0 1 1 0-16.908 8.454 8.454 0 0 1 0 16.908z"/>
        <path d="M15.095 9.711h-3.17v-3.17a1.057 1.057 0 1 0-2.114 0v3.17h-3.17a1.057 1.057 0 1 0 0 2.114h3.17v3.17a1.057 1.057 0 1 0 2.114 0v-3.17h3.17a1.057 1.057 0 1 0 0-2.114z"/>
    </g>
</svg>
