<?xml version="1.0" encoding="utf-8"?>
<!-- Generator: Adobe Illustrator 22.1.0, SVG Export Plug-In . SVG Version: 6.00 Build 0)  -->
<svg version="1.1" id="Calque_1" xmlns="http://www.w3.org/2000/svg" xmlns:xlink="http://www.w3.org/1999/xlink" x="0px" y="0px"
	 viewBox="0 0 24 24" style="enable-background:new 0 0 24 24;" xml:space="preserve">
<style type="text/css">
	.st0{fill:#FFFFFF;}
</style>
<path class="st0" d="M19.1,13.4V9.6c0-3.5-2.5-6.5-5.9-7.1V1.2C13.2,0.5,12.7,0,12,0s-1.2,0.5-1.2,1.2v1.3C7.4,3.1,4.9,6.1,4.9,9.6
	v3.8c-1.4,0.5-2.4,1.9-2.4,3.4v2.4c0,0.7,0.5,1.2,1.2,1.2h3.7C8,22.5,9.9,24,12,24s4-1.5,4.6-3.5h3.7c0.7,0,1.2-0.5,1.2-1.2v-2.4
	C21.5,15.3,20.6,14,19.1,13.4z M7.2,9.6C7.2,7,9.4,4.8,12,4.8s4.8,2.2,4.8,4.8v3.6H7.2V9.6z M12,21.7c-0.8,0-1.6-0.5-2-1.2H14
	C13.6,21.2,12.8,21.6,12,21.7z M19.1,18H4.9v-1.2c0-0.7,0.5-1.2,1.2-1.2h11.9c0.7,0,1.2,0.5,1.2,1.2V18z"/>
</svg>
