<svg xmlns="http://www.w3.org/2000/svg" width="12" height="12" viewBox="0 0 12 12">
    <path fill="#92929C" fill-rule="evenodd" d="M9.994 1.853H8.913v-.54a.54.54 0 1 0-1.081 0v.54H4.589v-.54a.54.54 0 1 0-1.081 0v.54H2.426c-.895 0-1.621.726-1.621 1.622V9.96c0 .896.726 1.622 1.621 1.622h7.568c.896 0 1.622-.726 1.622-1.622V3.475c0-.896-.726-1.622-1.622-1.622zm.54 8.108a.54.54 0 0 1-.54.54H2.426a.54.54 0 0 1-.54-.54V6.177h8.649v3.784zm0-4.865H1.887V3.475a.54.54 0 0 1 .54-.54h1.082v.54a.54.54 0 1 0 1.08 0v-.54h3.244v.54a.54.54 0 1 0 1.081 0v-.54h1.081a.54.54 0 0 1 .54.54v1.621z"/>
</svg>
