<svg xmlns="http://www.w3.org/2000/svg" width="24" height="24" viewBox="0 0 24 24">
    <path fill="#444" fill-rule="evenodd" d="M17.938 8.4V6c0-3.314-2.659-6-5.938-6-3.28 0-5.938 2.686-5.938 6v2.4C4.095 8.4 2.5 10.012 2.5 12v8.4c0 1.988 1.595 3.6 3.563 3.6h11.875c1.967 0 3.562-1.612 3.562-3.6V12c0-1.988-1.595-3.6-3.563-3.6zM8.438 6c0-1.988 1.594-3.6 3.562-3.6 1.968 0 3.563 1.612 3.563 3.6v2.4H8.436V6zm10.687 14.4c0 .663-.532 1.2-1.188 1.2H6.063a1.194 1.194 0 0 1-1.187-1.2V12c0-.663.532-1.2 1.188-1.2h11.875c.655 0 1.187.537 1.187 1.2v8.4z"/>
</svg>
