<svg xmlns="http://www.w3.org/2000/svg" width="24" height="24" viewBox="0 0 24 24">
    <path fill="#444" fill-rule="evenodd" d="M21.5 8.328a1.586 1.586 0 0 0-.071-.324v-.108a1.285 1.285 0 0 0-.226-.336L14.078.36a1.27 1.27 0 0 0-.332-.228h-.107A1.038 1.038 0 0 0 13.247 0H6.063C4.095 0 2.5 1.612 2.5 3.6v16.8c0 1.988 1.595 3.6 3.563 3.6h11.875c1.967 0 3.562-1.612 3.562-3.6v-12-.072zm-7.125-4.236L17.451 7.2h-1.889A1.194 1.194 0 0 1 14.376 6V4.092zm4.75 16.308c0 .663-.532 1.2-1.188 1.2H6.063a1.194 1.194 0 0 1-1.187-1.2V3.6c0-.663.532-1.2 1.188-1.2H12V6c0 1.988 1.595 3.6 3.563 3.6h3.562v10.8z"/>
</svg>
