<svg xmlns="http://www.w3.org/2000/svg" width="24" height="24" viewBox="0 0 24 24">
    <path fill="#837DFF" fill-rule="evenodd" d="M17.17 0H1.5v24h21V5.28L17.17 0zm.484 2.72l2.1 2.08h-2.1V2.72zm-8.949 8.448c.954 0 1.538.725 1.538 1.945 0 1.217-.577 1.945-1.52 1.945-.54 0-.954-.236-1.139-.636h-.062v1.829h-.994V11.23h.964v.619h.061c.205-.424.633-.68 1.152-.68zm-.338 3.06c.536 0 .854-.417.854-1.115 0-.69-.321-1.11-.85-1.11-.53 0-.859.423-.859 1.114 0 .69.328 1.11.855 1.11zm4.036.83c-.95 0-1.534-.745-1.534-1.948 0-1.2.588-1.942 1.534-1.942.51 0 .93.247 1.125.664h.058V9.79h.995V15h-.964v-.591h-.062c-.201.406-.629.65-1.152.65zm.339-3.056c-.53 0-.851.42-.851 1.111 0 .698.317 1.115.85 1.115.534 0 .855-.42.855-1.111 0-.687-.325-1.115-.854-1.115zM15.903 15v-2.95h-.608v-.782h.608v-.383c0-.749.383-1.128 1.292-1.128.202 0 .37.014.513.037v.705a2.731 2.731 0 0 0-.297-.018c-.39 0-.534.154-.534.476v.31h.8v.783h-.78V15h-.994zm4.982 7.4H3.115V1.6h12.923v4.8h4.847v16z"/>
</svg>
