<svg xmlns="http://www.w3.org/2000/svg" width="12" height="11" viewBox="0 0 12 11">
    <path fill="#92929C" fill-rule="evenodd" d="M9.994 1.664H6.599l-.173-.54A1.622 1.622 0 0 0 4.891.041H2.426C1.531.042.805.768.805 1.664V8.69c0 .896.726 1.622 1.621 1.622h7.568c.896 0 1.622-.726 1.622-1.622V3.286c0-.896-.726-1.622-1.622-1.622zm.54 7.027a.54.54 0 0 1-.54.54H2.426a.54.54 0 0 1-.54-.54V1.664a.54.54 0 0 1 .54-.54h2.465a.54.54 0 0 1 .514.367l.292.886a.54.54 0 0 0 .513.368h3.784a.54.54 0 0 1 .54.54v5.406z"/>
</svg>
