<svg xmlns="http://www.w3.org/2000/svg" width="12" height="12" viewBox="0 0 12 12">
    <g fill="none" fill-rule="evenodd">
        <circle cx="6" cy="6" r="6" fill="#FED453"/>
        <path fill="#444" d="M5.787 6.987a.474.474 0 0 0-.036.045.228.228 0 0 0-.027.054.192.192 0 0 0-.018.054.408.408 0 0 0 0 .06.252.252 0 0 0 .024.114.27.27 0 0 0 .162.162.282.282 0 0 0 .228 0 .27.27 0 0 0 .162-.162A.3.3 0 0 0 6.3 7.2a.3.3 0 0 0-.513-.213zM6 3a3 3 0 1 0 0 6 3 3 0 0 0 0-6zm0 5.4a2.4 2.4 0 1 1 0-4.8 2.4 2.4 0 0 1 0 4.8zm0-3.9a.9.9 0 0 0-.78.45.3.3 0 1 0 .519.3A.3.3 0 1 1 6 5.7a.3.3 0 0 0-.3.3v.3a.3.3 0 0 0 .6 0v-.054A.9.9 0 0 0 6 4.5z"/>
    </g>
</svg>
