<?xml version="1.0" encoding="utf-8"?>
<!-- Generator: Adobe Illustrator 22.1.0, SVG Export Plug-In . SVG Version: 6.00 Build 0)  -->
<svg version="1.1" id="Calque_1" xmlns="http://www.w3.org/2000/svg" xmlns:xlink="http://www.w3.org/1999/xlink" x="0px" y="0px"
	 viewBox="0 0 24 24" style="enable-background:new 0 0 24 24;" xml:space="preserve">
<style type="text/css">
	.st0{fill:#FFFFFF;}
</style>
<path class="st0" d="M18,6h1.2v1.2c0,0.7,0.5,1.2,1.2,1.2c0.7,0,1.2-0.5,1.2-1.2c0,0,0,0,0,0V6h1.2C23.5,6,24,5.5,24,4.8
	s-0.5-1.2-1.2-1.2h-1.2V2.4c0-0.7-0.5-1.2-1.2-1.2c-0.7,0-1.2,0.5-1.2,1.2c0,0,0,0,0,0v1.2H18c-0.7,0-1.2,0.5-1.2,1.2
	C16.8,5.5,17.3,6,18,6C18,6,18,6,18,6z M22.8,10.8c-0.7,0-1.2,0.5-1.2,1.2c0,0,0,0,0,0v7.2c0,0.7-0.5,1.2-1.2,1.2h0H3.6
	c-0.7,0-1.2-0.5-1.2-1.2l0,0V7.7l7.1,7.1c1.4,1.4,3.7,1.4,5.1,0l3-3c0.5-0.5,0.5-1.2,0-1.7c-0.5-0.5-1.2-0.5-1.7,0l-3,3
	c-0.5,0.5-1.2,0.5-1.7,0L4.1,6h9.1c0.7,0,1.2-0.5,1.2-1.2s-0.5-1.2-1.2-1.2l0,0H3.6C1.6,3.6,0,5.2,0,7.2c0,0,0,0,0,0v12
	c0,2,1.6,3.6,3.6,3.6c0,0,0,0,0,0h16.8c2,0,3.6-1.6,3.6-3.6c0,0,0,0,0,0V12C24,11.3,23.5,10.8,22.8,10.8L22.8,10.8z"/>
</svg>
